<svg width="91" height="25" viewBox="0 0 91 25" fill="none" xmlns="http://www.w3.org/2000/svg">
<path d="M90.0142 11.5567L86.2642 11.9658C86.1582 11.587 85.9726 11.231 85.7074 10.8976C85.4498 10.5643 85.1013 10.2954 84.6619 10.0908C84.2226 9.88627 83.6847 9.784 83.0483 9.784C82.1923 9.784 81.4726 9.96961 80.8892 10.3408C80.3135 10.712 80.0294 11.1931 80.0369 11.784C80.0294 12.2916 80.215 12.7045 80.5938 13.0226C80.9801 13.3408 81.6165 13.6022 82.5029 13.8067L85.4801 14.4431C87.1316 14.7992 88.3589 15.3635 89.1619 16.1363C89.9726 16.909 90.3816 17.9204 90.3892 19.1704C90.3816 20.2689 90.0597 21.2385 89.4233 22.0795C88.7945 22.9128 87.9195 23.5643 86.7983 24.034C85.6771 24.5037 84.3892 24.7385 82.9347 24.7385C80.7983 24.7385 79.0786 24.2916 77.7756 23.3976C76.4726 22.4961 75.696 21.2423 75.446 19.6363L79.4574 19.2499C79.6392 20.0378 80.0256 20.6325 80.6165 21.034C81.2074 21.4355 81.9763 21.6363 82.9233 21.6363C83.9006 21.6363 84.6847 21.4355 85.2756 21.034C85.8741 20.6325 86.1733 20.1363 86.1733 19.5454C86.1733 19.0454 85.9801 18.6325 85.5938 18.3067C85.215 17.981 84.6241 17.731 83.821 17.5567L80.8438 16.9317C79.1695 16.5832 77.9309 15.9961 77.1279 15.1704C76.3248 14.337 75.9271 13.284 75.9347 12.0113C75.9271 10.9355 76.2188 10.0037 76.8097 9.21582C77.4082 8.42037 78.2377 7.80673 79.2983 7.37491C80.3665 6.93552 81.5976 6.71582 82.9915 6.71582C85.037 6.71582 86.6468 7.15143 87.821 8.02264C89.0029 8.89385 89.7339 10.0719 90.0142 11.5567Z" fill="black"/>
<path d="M67.8749 24.3977V6.94318H71.9886V24.3977H67.8749ZM69.9431 4.46591C69.2916 4.46591 68.731 4.25 68.2613 3.81818C67.7916 3.37879 67.5568 2.85227 67.5568 2.23864C67.5568 1.61742 67.7916 1.09091 68.2613 0.65909C68.731 0.219697 69.2916 0 69.9431 0C70.6022 0 71.1628 0.219697 71.6249 0.65909C72.0946 1.09091 72.3295 1.61742 72.3295 2.23864C72.3295 2.85227 72.0946 3.37879 71.6249 3.81818C71.1628 4.25 70.6022 4.46591 69.9431 4.46591Z" fill="black"/>
<path d="M63.6449 1.125V24.3977H59.5312V1.125H63.6449Z" fill="black"/>
<path d="M47.6761 24.7385C45.9716 24.7385 44.4943 24.3635 43.2443 23.6135C41.9943 22.8635 41.0246 21.8143 40.3352 20.4658C39.6534 19.1173 39.3125 17.5416 39.3125 15.7385C39.3125 13.9355 39.6534 12.356 40.3352 10.9999C41.0246 9.64385 41.9943 8.59082 43.2443 7.84082C44.4943 7.09082 45.9716 6.71582 47.6761 6.71582C49.3807 6.71582 50.858 7.09082 52.108 7.84082C53.358 8.59082 54.3239 9.64385 55.0057 10.9999C55.6951 12.356 56.0398 13.9355 56.0398 15.7385C56.0398 17.5416 55.6951 19.1173 55.0057 20.4658C54.3239 21.8143 53.358 22.8635 52.108 23.6135C50.858 24.3635 49.3807 24.7385 47.6761 24.7385ZM47.6989 21.4431C48.6231 21.4431 49.3958 21.1893 50.017 20.6817C50.6383 20.1666 51.1004 19.4772 51.4034 18.6135C51.714 17.7499 51.8693 16.7878 51.8693 15.7272C51.8693 14.659 51.714 13.6931 51.4034 12.8295C51.1004 11.9582 50.6383 11.2651 50.017 10.7499C49.3958 10.2348 48.6231 9.97718 47.6989 9.97718C46.7519 9.97718 45.964 10.2348 45.3352 10.7499C44.714 11.2651 44.2481 11.9582 43.9375 12.8295C43.6345 13.6931 43.483 14.659 43.483 15.7272C43.483 16.7878 43.6345 17.7499 43.9375 18.6135C44.2481 19.4772 44.714 20.1666 45.3352 20.6817C45.964 21.1893 46.7519 21.4431 47.6989 21.4431Z" fill="black"/>
<path d="M19.9005 24.3977V1.125H28.6278C30.4157 1.125 31.9157 1.45833 33.1278 2.125C34.3475 2.79167 35.2679 3.70833 35.8892 4.875C36.5179 6.03409 36.8323 7.35227 36.8323 8.82955C36.8323 10.322 36.5179 11.6477 35.8892 12.8068C35.2604 13.9659 34.3323 14.8788 33.1051 15.5455C31.8778 16.2045 30.3664 16.5341 28.571 16.5341H22.7869V13.0682H28.0028C29.0482 13.0682 29.9043 12.8864 30.571 12.5227C31.2376 12.1591 31.7301 11.6591 32.0482 11.0227C32.374 10.3864 32.5369 9.6553 32.5369 8.82955C32.5369 8.00379 32.374 7.27652 32.0482 6.64773C31.7301 6.01894 31.2338 5.5303 30.5596 5.18182C29.8929 4.82576 29.0331 4.64773 27.9801 4.64773H24.1164V24.3977H19.9005Z" fill="black"/>
<path d="M8.47727 24.7385C6.72727 24.7385 5.21591 24.3749 3.94318 23.6476C2.67803 22.9128 1.70455 21.8749 1.02273 20.534C0.340909 19.1855 0 17.5984 0 15.7726C0 13.9772 0.340909 12.4014 1.02273 11.0454C1.71212 9.68173 2.67424 8.62112 3.90909 7.86355C5.14394 7.0984 6.5947 6.71582 8.26136 6.71582C9.33712 6.71582 10.3523 6.89006 11.3068 7.23855C12.2689 7.57946 13.1174 8.10976 13.8523 8.82946C14.5947 9.54915 15.178 10.4658 15.6023 11.5795C16.0265 12.6855 16.2386 14.0037 16.2386 15.534V16.7954H1.93182V14.0226H12.2955C12.2879 13.2348 12.1174 12.534 11.7841 11.9204C11.4508 11.2992 10.9848 10.8105 10.3864 10.4545C9.79545 10.0984 9.10606 9.92037 8.31818 9.92037C7.47727 9.92037 6.73864 10.1249 6.10227 10.534C5.46591 10.9355 4.9697 11.4658 4.61364 12.1249C4.26515 12.7764 4.08712 13.4923 4.07955 14.2726V16.6931C4.07955 17.7082 4.26515 18.5795 4.63636 19.3067C5.00758 20.0264 5.52652 20.5795 6.19318 20.9658C6.85985 21.3446 7.64015 21.534 8.53409 21.534C9.13258 21.534 9.67424 21.4507 10.1591 21.284C10.6439 21.1098 11.0644 20.856 11.4205 20.5226C11.7765 20.1893 12.0455 19.7764 12.2273 19.284L16.0682 19.7158C15.8258 20.731 15.3636 21.6173 14.6818 22.3749C14.0076 23.1249 13.1439 23.7082 12.0909 24.1249C11.0379 24.534 9.83333 24.7385 8.47727 24.7385Z" fill="black"/>
</svg>
