<svg width="118" height="41" viewBox="0 0 118 41" fill="none" xmlns="http://www.w3.org/2000/svg">
<path d="M10.1382 10.3297H23.3887C25.9943 10.3297 28.1105 10.706 29.7146 11.4529C31.3196 12.2065 32.649 13.2794 33.7038 14.6791C34.7519 16.0864 35.5102 17.7142 35.9806 19.5758C36.4576 21.4374 36.6923 23.4063 36.6923 25.4893C36.6923 28.7516 36.3427 31.2821 35.6376 33.08C34.9391 34.8779 33.9651 36.385 32.7165 37.6004C31.4669 38.8158 30.1308 39.6264 28.7006 40.0312C26.7459 40.5852 24.9737 40.8627 23.3887 40.8627H10.1382V10.3297V10.3297ZM19.0431 17.2382V33.9115H21.2325C23.0998 33.9115 24.4292 33.692 25.2217 33.2577C26.0076 32.8168 26.6253 32.0566 27.0757 30.9695C27.5252 29.8748 27.7475 28.112 27.7475 25.667C27.7475 22.4333 27.2505 20.2229 26.2499 19.0285C25.2493 17.8349 23.5901 17.2372 21.2734 17.2372H19.0431V17.2382Z" fill="#1EAC57"/>
<path d="M41.6105 10.0773V6.90724H47.6105V13.3852C46.4616 14.3355 45.4467 14.9845 44.5668 15.3285C43.683 15.6725 42.6368 15.8426 41.4271 15.8426C39.9361 15.8426 38.7198 15.5347 37.7809 14.917C36.843 14.3031 36.1142 13.3852 35.5972 12.165C35.0803 10.9487 34.8228 9.54802 34.8228 7.97058C34.8228 6.30762 35.1069 4.86418 35.6704 3.63359C36.2349 2.4068 37.0616 1.47458 38.1534 0.836008C39.0039 0.342821 40.1499 0.0986023 41.5886 0.0986023C42.9741 0.0986023 44.0118 0.25065 44.6998 0.555685C45.3897 0.860719 45.9599 1.33204 46.4131 1.97442C46.8664 2.61585 47.2085 3.42832 47.4356 4.40995L43.7001 5.22528C43.5452 4.64752 43.2849 4.20374 42.9162 3.89966C42.5475 3.59082 42.0799 3.43878 41.5069 3.43878C40.6583 3.43878 39.9808 3.79702 39.4743 4.51352C38.9688 5.23002 38.717 6.36464 38.717 7.91357C38.717 9.55847 38.9716 10.7358 39.4828 11.4419C39.9912 12.1479 40.7049 12.5024 41.6171 12.5024C42.0505 12.5024 42.4619 12.4273 42.8563 12.2753C43.2487 12.1232 43.6992 11.8638 44.2076 11.5027V10.0773H41.6115H41.6105Z" fill="black"/>
<path d="M55.8803 12.1087L57.4549 12.3653C57.2097 13.498 56.7507 14.3799 56.0827 15.0051C55.4137 15.6304 54.5604 15.945 53.5189 15.945C52.2094 15.945 51.1717 15.4451 50.4039 14.4445C49.6371 13.4486 49.2532 12.0441 49.2532 10.2405C49.2532 8.37611 49.6399 6.926 50.4163 5.89782C51.1917 4.86583 52.198 4.35174 53.4353 4.35174C54.6316 4.35174 55.6095 4.85538 56.3678 5.86646C57.1261 6.87659 57.5071 8.29819 57.5071 10.1303C57.5071 10.2415 57.5043 10.4087 57.4986 10.6301H50.8116C50.8696 11.8484 51.1461 12.7844 51.6478 13.4306C52.1467 14.0767 52.772 14.4017 53.5189 14.4017C54.0758 14.4017 54.5509 14.2193 54.9433 13.8553C55.3386 13.4914 55.6494 12.9089 55.8803 12.1087V12.1087ZM50.8971 9.08691H55.8974C55.8309 8.15185 55.638 7.4515 55.3234 6.98397C54.8417 6.25892 54.2126 5.89496 53.4429 5.89496C52.7454 5.89496 52.16 6.18384 51.6839 6.76255C51.2117 7.34127 50.9484 8.11669 50.8971 9.08786V9.08691ZM59.3782 15.7093V4.5874H60.7447V6.1658C61.4023 4.95516 62.3535 4.35174 63.5964 4.35174C64.1381 4.35174 64.6351 4.47338 65.0874 4.71284C65.5397 4.95231 65.8809 5.26969 66.1051 5.6593C66.3303 6.04891 66.489 6.51264 66.5784 7.04954C66.6335 7.39923 66.662 8.01026 66.662 8.88165V15.7102H65.1397V8.95292C65.1397 8.1851 65.0817 7.61019 64.9639 7.23104C64.8451 6.85283 64.6351 6.54875 64.3348 6.32069C64.0355 6.09548 63.6801 5.98144 63.2771 5.98144C62.631 5.98144 62.0741 6.23517 61.6047 6.74546C61.1343 7.2529 60.9005 8.22026 60.9005 9.64186V15.7102H59.3782V15.7093ZM75.125 12.1087L76.6996 12.3653C76.4544 13.498 75.9955 14.3799 75.3274 15.0051C74.6585 15.6304 73.8051 15.945 72.7636 15.945C71.4542 15.945 70.4165 15.4451 69.6487 14.4445C68.8818 13.4486 68.4979 12.0441 68.4979 10.2405C68.4979 8.37611 68.8847 6.926 69.6601 5.89782C70.4364 4.86583 71.4428 4.35174 72.68 4.35174C73.8764 4.35174 74.8542 4.85538 75.6125 5.86646C76.3708 6.87659 76.7519 8.29819 76.7519 10.1303C76.7519 10.2415 76.749 10.4087 76.7433 10.6301H70.0563C70.1143 11.8484 70.3908 12.7844 70.8926 13.4306C71.3915 14.0767 72.0177 14.4017 72.7646 14.4017C73.3214 14.4017 73.7966 14.2193 74.189 13.8553C74.5834 13.4914 74.8951 12.9089 75.126 12.1087H75.125ZM70.1428 9.08691H75.1431C75.0766 8.15185 74.8837 7.4515 74.5691 6.98397C74.0874 6.25892 73.4583 5.89496 72.6886 5.89496C71.9911 5.89496 71.4057 6.18384 70.9287 6.76255C70.4564 7.34127 70.1932 8.11669 70.1418 9.08786L70.1428 9.08691ZM78.6059 15.7093V4.5874H79.9733V6.29123C80.322 5.50156 80.6451 4.98081 80.9426 4.73089C81.239 4.47717 81.565 4.35269 81.9194 4.35269C82.4335 4.35269 82.9552 4.55225 83.4855 4.94946L82.9438 6.68844C82.5741 6.43187 82.2054 6.30263 81.8367 6.30263C81.5051 6.30263 81.2077 6.42712 80.9454 6.67419C80.6822 6.92031 80.495 7.26335 80.3828 7.70237C80.2127 8.3704 80.1291 9.10305 80.1291 9.89938V15.7102H78.6068L78.6059 15.7093ZM90.2504 14.3162C89.685 14.913 89.1395 15.3301 88.6178 15.5772C88.0952 15.8233 87.5364 15.945 86.9368 15.945C85.9504 15.945 85.1921 15.6485 84.6619 15.0517C84.1307 14.4587 83.8656 13.6985 83.8656 12.773C83.8656 12.2304 83.9672 11.7334 84.1658 11.2839C84.3673 10.8335 84.6296 10.4762 84.9527 10.2054C85.2786 9.93359 85.6426 9.72644 86.0483 9.5877C86.3486 9.49077 86.8009 9.39859 87.4034 9.30546C88.6321 9.12681 89.5396 8.90921 90.1202 8.65929C90.1259 8.40272 90.1287 8.23832 90.1287 8.1699C90.1287 7.40589 89.9843 6.86614 89.6964 6.5516C89.3077 6.12683 88.7281 5.91588 87.9602 5.91588C87.2428 5.91588 86.7116 6.07267 86.3714 6.38435C86.0284 6.69509 85.7775 7.24529 85.6131 8.03781L84.1259 7.78029C84.2618 6.99158 84.4832 6.35205 84.7949 5.86646C85.1066 5.38088 85.557 5.00932 86.1443 4.74515C86.7297 4.48478 87.4129 4.35269 88.1855 4.35269C88.9523 4.35269 89.5776 4.46387 90.0594 4.68813C90.5383 4.91335 90.8927 5.19177 91.117 5.53102C91.3422 5.87026 91.5009 6.29883 91.5931 6.81673C91.6425 7.13792 91.6682 7.71662 91.6682 8.54905V11.0492C91.6682 12.7958 91.6995 13.899 91.7632 14.3666C91.824 14.835 91.9504 15.2807 92.1357 15.7093H90.544C90.391 15.313 90.2922 14.8483 90.2504 14.3162V14.3162ZM90.1287 10.1369C89.5757 10.4154 88.7452 10.651 87.6372 10.8439C87.009 10.9551 86.5643 11.0796 86.3049 11.2183C86.0455 11.3571 85.8469 11.5614 85.7053 11.8256C85.5646 12.0926 85.4924 12.39 85.4924 12.7179C85.4924 13.2139 85.6454 13.632 85.9533 13.9646C86.2621 14.2972 86.7116 14.4644 87.3027 14.4644C87.888 14.4644 88.4097 14.3077 88.8687 13.9893C89.3239 13.6757 89.6612 13.2434 89.875 12.697C90.0394 12.2722 90.1202 11.6469 90.1202 10.8221L90.1287 10.136V10.1369ZM93.9726 15.7083V0.365387H95.4949V15.7083H93.9726Z" fill="black"/>
<path d="M49.2532 40.0731V28.9512H50.6092V30.5296C51.2611 29.319 52.2056 28.7156 53.4381 28.7156C53.976 28.7156 54.4682 28.8372 54.9167 29.0767C55.3653 29.3161 55.7036 29.6335 55.9259 30.0231C56.1492 30.4127 56.306 30.8765 56.3953 31.4124C56.4495 31.7621 56.478 32.3731 56.478 33.2445V40.0731H54.968V33.3158C54.968 32.548 54.911 31.9731 54.7932 31.5939C54.6763 31.2157 54.4673 30.9116 54.1698 30.6836C53.8724 30.4584 53.5208 30.3443 53.1198 30.3443C52.4793 30.3443 51.9272 30.5981 51.4616 31.1083C50.995 31.6158 50.7631 32.5832 50.7631 34.0047V40.0731H49.2532ZM58.198 36.752L59.6918 36.4517C59.7745 37.1976 60.0092 37.7697 60.3922 38.1697C60.7761 38.566 61.313 38.7665 62 38.7665C62.6946 38.7665 63.2097 38.5917 63.548 38.2382C63.8825 37.8885 64.0516 37.4742 64.0516 36.999C64.0516 36.5733 63.8996 36.2379 63.5993 35.9955C63.3874 35.8273 62.8723 35.6173 62.0542 35.356C60.95 35.0092 60.186 34.7098 59.7574 34.4561C59.3317 34.1986 59.0076 33.8489 58.7871 33.3985C58.5676 32.9519 58.4555 32.4549 58.4555 31.9123C58.4555 31.4162 58.5467 30.9582 58.7273 30.5372C58.9107 30.1163 59.1559 29.7666 59.4685 29.4872C59.7032 29.2724 60.0234 29.0909 60.4264 28.9408C60.8331 28.7906 61.2645 28.7156 61.7282 28.7156C62.4267 28.7156 63.0386 28.8401 63.5651 29.0938C64.0934 29.3437 64.483 29.6867 64.7349 30.1153C64.9829 30.5477 65.1577 31.1216 65.2518 31.8438L63.776 32.1014C63.7105 31.5227 63.5157 31.0694 63.1954 30.7444C62.8752 30.4184 62.4229 30.2588 61.8366 30.2588C61.1476 30.2588 60.6525 30.4013 60.3579 30.6874C60.0634 30.9725 59.9142 31.3089 59.9142 31.6909C59.9142 31.9341 59.974 32.1546 60.0976 32.3513C60.2211 32.5518 60.4121 32.719 60.6753 32.8511C60.8274 32.9224 61.2673 33.083 62.0057 33.3329C63.07 33.6864 63.8131 33.9791 64.2369 34.2043C64.6607 34.4295 64.9924 34.7612 65.2328 35.1897C65.4761 35.6221 65.5958 36.158 65.5958 36.8004C65.5958 37.4257 65.4494 38.0149 65.1558 38.5689C64.8612 39.1229 64.4374 39.5514 63.8853 39.8546C63.3304 40.1586 62.7041 40.3088 62.0057 40.3088C60.8502 40.3088 59.9664 40.0085 59.3592 39.4127C58.7529 38.8131 58.3671 37.9274 58.198 36.752V36.752ZM73.1979 40.0731V38.4197C72.5061 39.6807 71.5672 40.3088 70.3804 40.3088C69.8568 40.3088 69.3683 40.1843 68.9132 39.9334C68.458 39.6797 68.1207 39.3661 67.9011 38.987C67.6807 38.605 67.5267 38.1403 67.4384 37.5901C67.3785 37.2185 67.3471 36.6332 67.3471 35.8331V28.9503H68.8571V35.1042C68.8571 36.0858 68.8885 36.751 68.9483 37.0893C69.0424 37.5863 69.2429 37.9721 69.5517 38.2543C69.8577 38.5365 70.2359 38.6791 70.6873 38.6791C71.1396 38.6791 71.5625 38.5366 71.9578 38.2467C72.3522 37.9569 72.6335 37.5606 72.7988 37.0646C72.9622 36.5686 73.0449 35.8435 73.0449 34.897V28.9503H74.5558V40.0722H73.1998L73.1979 40.0731ZM76.9077 40.0731V28.9512H78.2628V30.6551C78.6087 29.8654 78.9289 29.3437 79.2245 29.0938C79.5191 28.8401 79.8421 28.7156 80.1937 28.7156C80.7031 28.7156 81.221 28.9151 81.7465 29.3123L81.2096 31.0513C80.8437 30.7947 80.4779 30.6655 80.1111 30.6655C79.7823 30.6655 79.4877 30.79 79.2273 31.0371C78.967 31.2832 78.7807 31.6262 78.6695 32.0662C78.5004 32.7342 78.4177 33.4659 78.4177 34.2623V40.0731H76.9077ZM88.4582 38.68C87.8975 39.2768 87.3568 39.694 86.8389 39.941C86.322 40.1872 85.767 40.3088 85.1712 40.3088C84.1925 40.3088 83.4408 40.0123 82.9143 39.4155C82.3879 38.8226 82.1247 38.0624 82.1247 37.1368C82.1247 36.5942 82.2245 36.0972 82.4221 35.6478C82.6226 35.1973 82.883 34.84 83.2032 34.5692C83.5263 34.2984 83.8865 34.0903 84.2903 33.9515C84.5878 33.8546 85.0372 33.7624 85.6349 33.6693C86.8532 33.4907 87.754 33.273 88.3289 33.0231C88.3346 32.7665 88.3375 32.6022 88.3375 32.5337C88.3375 31.7697 88.195 31.23 87.9089 30.9164C87.5231 30.4916 86.9482 30.2807 86.187 30.2807C85.4753 30.2807 84.9488 30.4375 84.6106 30.7482C84.2704 31.0589 84.0214 31.6091 83.858 32.4026L82.3822 32.1451C82.5162 31.3554 82.7366 30.7159 83.0455 30.2303C83.3534 29.7447 83.8 29.3732 84.3835 29.109C84.9641 28.8486 85.6416 28.7165 86.4085 28.7165C87.1696 28.7165 87.7902 28.8277 88.2681 29.0529C88.7423 29.2781 89.0939 29.5566 89.3172 29.8958C89.5405 30.2351 89.6973 30.6636 89.7895 31.1825C89.838 31.5036 89.8636 32.0824 89.8636 32.9148V35.4149C89.8636 37.1615 89.895 38.2648 89.9577 38.7333C90.0176 39.2008 90.144 39.6474 90.3274 40.076H88.748C88.5969 39.6797 88.4991 39.215 88.4563 38.6829L88.4582 38.68ZM88.3375 34.5017C87.7883 34.7802 86.9653 35.0158 85.8668 35.2087C85.2435 35.3199 84.8025 35.4444 84.545 35.5831C84.2884 35.7228 84.0908 35.9262 83.9501 36.1904C83.8104 36.4583 83.7392 36.7548 83.7392 37.0826C83.7392 37.5796 83.8903 37.9968 84.1963 38.3294C84.5022 38.661 84.9489 38.8292 85.5352 38.8292C86.1158 38.8292 86.6337 38.6724 87.0879 38.3541C87.5402 38.0405 87.8747 37.6081 88.0866 37.0617C88.2501 36.636 88.3299 36.0117 88.3299 35.1859L88.3385 34.5008L88.3375 34.5017ZM92.1851 40.0731V28.9512H93.5402V30.5296C94.1921 29.319 95.1366 28.7156 96.3691 28.7156C96.907 28.7156 97.3992 28.8372 97.8477 29.0767C98.2963 29.3161 98.6346 29.6335 98.8579 30.0231C99.0812 30.4127 99.238 30.8765 99.3263 31.4124C99.3805 31.7621 99.409 32.3731 99.409 33.2445V40.0731H97.899V33.3158C97.899 32.548 97.842 31.9731 97.7242 31.5939C97.6073 31.2157 97.3983 30.9116 97.1008 30.6836C96.8034 30.4584 96.4518 30.3443 96.0517 30.3443C95.4113 30.3443 94.8582 30.5981 94.3926 31.1083C93.926 31.6158 93.6951 32.5832 93.6951 34.0047V40.0731H92.1851ZM107.548 36.0012L109.025 36.2578C108.861 37.5255 108.449 38.5156 107.783 39.2331C107.117 39.9515 106.296 40.3078 105.326 40.3078C104.11 40.3078 103.132 39.8118 102.395 38.8188C101.654 37.8258 101.285 36.4042 101.285 34.555C101.285 33.3548 101.445 32.3085 101.763 31.4086C102.08 30.5125 102.564 29.8369 103.216 29.3903C103.865 28.9408 104.572 28.7156 105.339 28.7156C106.302 28.7156 107.095 29.0197 107.707 29.6297C108.322 30.2407 108.717 31.1083 108.888 32.2296L107.429 32.5081C107.289 31.7621 107.043 31.2005 106.685 30.8223C106.331 30.447 105.902 30.2579 105.399 30.2579C104.638 30.2579 104.02 30.5971 103.542 31.2756C103.067 31.9579 102.829 33.0298 102.829 34.5008C102.829 35.9936 103.058 37.076 103.515 37.7507C103.976 38.4254 104.574 38.7646 105.308 38.7646C105.903 38.7646 106.398 38.5394 106.793 38.0861C107.191 37.6357 107.442 36.9392 107.547 36.0003L107.548 36.0012ZM116.387 36.4726L117.949 36.7291C117.705 37.8619 117.251 38.7437 116.587 39.369C115.924 39.9943 115.077 40.3088 114.044 40.3088C112.745 40.3088 111.716 39.8089 110.955 38.8093C110.194 37.8124 109.813 36.4089 109.813 34.6053C109.813 32.7409 110.197 31.2908 110.966 30.2626C111.736 29.2306 112.734 28.7165 113.961 28.7165C115.149 28.7165 116.118 29.2202 116.87 30.2313C117.623 31.2414 118 32.663 118 34.496C118 34.6063 117.997 34.7745 117.991 34.9959H111.358C111.415 36.2132 111.689 37.1501 112.187 37.7953C112.682 38.4425 113.303 38.7665 114.044 38.7665C114.596 38.7665 115.068 38.5841 115.457 38.2201C115.849 37.8562 116.157 37.2736 116.386 36.4735L116.387 36.4726ZM111.444 33.4507H116.404C116.339 32.5147 116.147 31.8153 115.835 31.3469C115.357 30.6218 114.734 30.2579 113.97 30.2579C113.278 30.2579 112.697 30.5477 112.224 31.1254C111.756 31.7042 111.494 32.4796 111.443 33.4507H111.444Z" fill="black"/>
<path fill-rule="evenodd" clip-rule="evenodd" d="M42.8965 24.7484H46.3536V40.136H42.8965V24.7484Z" fill="black"/>
<path fill-rule="evenodd" clip-rule="evenodd" d="M43.2963 23.3348C43.3856 23.1961 43.7866 23.025 43.4588 22.7666C40.8684 19.8806 45.3156 19.4616 44.7055 17.3216C46.4702 19.3608 47.4727 20.2797 45.3764 22.8369C45.3745 23.065 45.5969 23.1685 45.7071 23.3339C45.0049 23.3339 43.9985 23.3339 43.2963 23.3339V23.3348ZM43.9596 22.6801C42.4639 20.5259 44.1012 20.6484 44.9982 18.44C45.8734 21.1274 44.4936 20.0631 43.9596 22.6801Z" fill="black"/>
<path d="M0 0.000939592H13.2505C15.8561 0.000939592 17.9723 0.37725 19.5764 1.12416C21.1814 1.87772 22.5117 2.95056 23.5656 4.3503C24.6137 5.75764 25.372 7.38544 25.8424 9.24701C26.3194 11.1086 26.5542 13.0775 26.5542 15.1595C26.5542 18.4218 26.2054 20.9524 25.4994 22.7502C24.8009 24.5481 23.8279 26.0553 22.5783 27.2707C21.3287 28.486 19.9926 29.2957 18.5625 29.7014C16.6087 30.2554 14.8355 30.5329 13.2505 30.5329H0V0V0.000939592ZM8.90493 6.90936V23.5827H11.0943C12.9616 23.5827 14.291 23.3632 15.0835 22.9289C15.8694 22.4889 16.4871 21.7278 16.9365 20.6407C17.387 19.546 17.6084 17.7832 17.6084 15.3391C17.6084 12.1054 17.1114 9.89509 16.1108 8.70061C15.1101 7.50708 13.4519 6.90936 11.1342 6.90936H8.90493V6.90936Z" fill="#1E4CA5"/>
</svg>
