<?xml version="1.0" encoding="UTF-8"?>
<!DOCTYPE svg PUBLIC "-//W3C//DTD SVG 1.1//EN" "http://www.w3.org/Graphics/SVG/1.1/DTD/svg11.dtd">
<!-- Creator: CorelDRAW -->
<svg xmlns="http://www.w3.org/2000/svg" xml:space="preserve" width="178.291mm" height="48.151mm" version="1.1" style="shape-rendering:geometricPrecision; text-rendering:geometricPrecision; image-rendering:optimizeQuality; fill-rule:evenodd; clip-rule:evenodd"
viewBox="0 0 4026.27 1087.38"
 xmlns:xlink="http://www.w3.org/1999/xlink"
 xmlns:xodm="http://www.corel.com/coreldraw/odm/2003">
 <defs>
  <style type="text/css">
   <![CDATA[
    .fil1 {fill:#2B2A29}
    .fil0 {fill:#087B5F}
    .fil3 {fill:#2B2A29;fill-rule:nonzero}
    .fil2 {fill:#087B5F;fill-rule:nonzero}
   ]]>
  </style>
 </defs>
 <g id="Слой_x0020_1">
  <metadata id="CorelCorpID_0Corel-Layer"/>
  <g id="_2616163895184">
   <circle class="fil0" cx="548.25" cy="542.55" r="39.18"/>
   <polygon class="fil0" points="773.68,237.82 552.63,477.73 552.63,0 "/>
   <polygon class="fil0" points="924.54,492.9 598.59,506.23 936.4,168.43 "/>
   <polygon class="fil0" points="308.77,847.46 529.82,1087.38 529.82,609.65 "/>
   <polygon class="fil0" points="164.29,597.43 490.24,584.1 152.44,921.9 "/>
   <polygon class="fil1" points="237.82,312.63 477.73,533.68 -0,533.68 "/>
   <polygon class="fil1" points="492.8,164.69 503.82,490.73 168.42,150.54 "/>
   <polygon class="fil1" points="850.8,776.47 1090.71,555.41 612.98,555.41 "/>
   <polygon class="fil1" points="596.91,924.32 585.89,598.28 921.29,938.47 "/>
   <path class="fil2" d="M1309.99 576.47l0 -294.97 68.27 0 0 294.97 -68.27 0zm257.47 0l0 -294.97 56.47 0 174.03 212.38 -27.39 0 0 -212.38 67.42 0 0 294.97 -56.04 0 -174.46 -212.38 27.39 0 0 212.38 -67.42 0zm522.95 -162.24l141.59 0 0 54.78 -141.59 0 0 -54.78zm5.06 162.24l-68.27 0 0 -294.97 222.92 0 0 54.78 -154.65 0 0 240.19zm320.26 0l0 -294.97 68.27 0 0 294.97 -68.27 0zm257.47 0l0 -294.97 56.47 0 174.03 212.38 -27.39 0 0 -212.38 67.42 0 0 294.97 -56.04 0 -174.46 -212.38 27.39 0 0 212.38 -67.42 0zm459.74 0l0 -294.97 68.27 0 0 294.97 -68.27 0zm318.57 0l0 -239.35 -94.39 0 0 -55.62 257.05 0 0 55.62 -94.39 0 0 239.35 -68.27 0zm391.89 0l0 -120.52 15.59 41.29 -129.79 -215.75 72.48 0 99.45 165.61 -41.72 0 99.87 -165.61 67 0 -129.79 215.75 15.17 -41.29 0 120.52 -68.27 0z"/>
   <path class="fil3" d="M1501.47 804.6l0 -111.53 15.93 0 0 111.53 -15.93 0zm220.84 0l0 -111.53 13.07 0 73.77 91.62 -6.85 0 0 -91.62 15.93 0 0 111.53 -13.06 0 -73.77 -91.62 6.85 0 0 91.62 -15.93 0zm333.33 1.27c-8.5,0 -16.63,-1.3 -24.38,-3.9 -7.75,-2.6 -13.86,-5.98 -18.32,-10.12l5.89 -12.43c4.25,3.72 9.67,6.8 16.25,9.24 6.59,2.44 13.44,3.67 20.55,3.67 6.48,0 11.74,-0.74 15.77,-2.23 4.04,-1.49 7.01,-3.53 8.92,-6.13 1.91,-2.6 2.87,-5.55 2.87,-8.84 0,-3.82 -1.25,-6.9 -3.74,-9.24 -2.5,-2.34 -5.74,-4.22 -9.72,-5.66 -3.98,-1.43 -8.36,-2.68 -13.15,-3.74 -4.78,-1.06 -9.59,-2.31 -14.42,-3.74 -4.83,-1.43 -9.24,-3.27 -13.22,-5.5 -3.98,-2.23 -7.2,-5.23 -9.64,-9 -2.44,-3.77 -3.67,-8.63 -3.67,-14.58 0,-5.74 1.52,-11.02 4.54,-15.86 3.03,-4.83 7.7,-8.71 14.02,-11.63 6.32,-2.92 14.37,-4.38 24.14,-4.38 6.48,0 12.91,0.85 19.28,2.55 6.37,1.7 11.9,4.14 16.57,7.33l-5.26 12.75c-4.78,-3.19 -9.83,-5.5 -15.14,-6.93 -5.31,-1.43 -10.46,-2.15 -15.46,-2.15 -6.27,0 -11.42,0.79 -15.46,2.39 -4.04,1.59 -6.98,3.72 -8.84,6.37 -1.86,2.66 -2.79,5.63 -2.79,8.92 0,3.93 1.25,7.06 3.74,9.4 2.5,2.34 5.74,4.2 9.72,5.58 3.98,1.38 8.36,2.63 13.15,3.74 4.78,1.12 9.59,2.36 14.42,3.74 4.83,1.38 9.24,3.19 13.22,5.42 3.98,2.23 7.2,5.2 9.64,8.92 2.44,3.72 3.66,8.5 3.66,14.34 0,5.63 -1.54,10.86 -4.62,15.69 -3.08,4.83 -7.83,8.71 -14.26,11.63 -6.43,2.92 -14.53,4.38 -24.3,4.38zm284.1 0c-14.66,0 -26.18,-4.2 -34.58,-12.59 -8.39,-8.39 -12.59,-20.66 -12.59,-36.81l0 -63.41 15.93 0 0 62.78c0,12.43 2.73,21.51 8.2,27.25 5.47,5.74 13.2,8.6 23.18,8.6 10.09,0 17.87,-2.87 23.34,-8.6 5.47,-5.74 8.2,-14.82 8.2,-27.25l0 -62.78 15.46 0 0 63.41c0,16.15 -4.17,28.42 -12.51,36.81 -8.34,8.39 -19.89,12.59 -34.66,12.59zm251.27 -1.27l0 -111.53 43.5 0c9.77,0 18.11,1.54 25.01,4.62 6.91,3.08 12.22,7.54 15.93,13.38 3.72,5.84 5.58,12.8 5.58,20.87 0,8.07 -1.86,15 -5.58,20.79 -3.72,5.79 -9.03,10.22 -15.93,13.3 -6.9,3.08 -15.24,4.62 -25.01,4.62l-34.73 0 7.17 -7.33 0 41.27 -15.93 0zm74.57 0l-28.36 -40.47 17.05 0 28.68 40.47 -17.37 0zm-58.64 -39.67l-7.17 -7.81 34.26 0c10.2,0 17.92,-2.2 23.18,-6.61 5.26,-4.41 7.89,-10.6 7.89,-18.56 0,-7.96 -2.63,-14.13 -7.89,-18.48 -5.26,-4.36 -12.99,-6.53 -23.18,-6.53l-34.26 0 7.17 -7.97 0 65.97zm254.46 39.67l50.51 -111.53 15.77 0 50.67 111.53 -16.73 0 -45.09 -102.61 6.37 0 -45.09 102.61 -16.41 0zm21.51 -27.88l4.3 -12.75 62.78 0 4.62 12.75 -71.7 0zm283.46 27.88l0 -111.53 13.07 0 73.77 91.62 -6.85 0 0 -91.62 15.93 0 0 111.53 -13.06 0 -73.77 -91.62 6.85 0 0 91.62 -15.93 0zm350.7 1.27c-8.5,0 -16.33,-1.41 -23.5,-4.22 -7.17,-2.82 -13.38,-6.8 -18.64,-11.95 -5.26,-5.15 -9.37,-11.18 -12.35,-18.08 -2.97,-6.91 -4.46,-14.5 -4.46,-22.79 0,-8.29 1.49,-15.88 4.46,-22.78 2.97,-6.91 7.12,-12.93 12.43,-18.08 5.31,-5.15 11.55,-9.13 18.72,-11.95 7.17,-2.81 15,-4.22 23.5,-4.22 8.6,0 16.54,1.46 23.82,4.38 7.28,2.92 13.46,7.25 18.56,12.99l-10.36 10.04c-4.25,-4.46 -9.03,-7.78 -14.34,-9.96 -5.31,-2.18 -11,-3.27 -17.05,-3.27 -6.27,0 -12.08,1.06 -17.45,3.19 -5.36,2.13 -10.01,5.1 -13.94,8.92 -3.93,3.82 -6.98,8.36 -9.16,13.62 -2.18,5.26 -3.27,10.97 -3.27,17.13 0,6.16 1.09,11.87 3.27,17.13 2.18,5.26 5.23,9.8 9.16,13.62 3.93,3.82 8.58,6.8 13.94,8.92 5.37,2.13 11.18,3.19 17.45,3.19 6.05,0 11.74,-1.09 17.05,-3.27 5.31,-2.18 10.09,-5.55 14.34,-10.12l10.36 10.04c-5.1,5.74 -11.29,10.09 -18.56,13.07 -7.28,2.97 -15.27,4.46 -23.98,4.46zm251.27 -64.69l57.36 0 0 13.54 -57.36 0 0 -13.54zm1.43 49.55l65.01 0 0 13.86 -80.94 0 0 -111.53 78.71 0 0 13.86 -62.78 0 0 83.81z"/>
  </g>
 </g>
</svg>
