<svg width="205" height="69" viewBox="0 0 205 69" fill="none" xmlns="http://www.w3.org/2000/svg">
<path d="M11.4969 1.0502C11.4969 0.470191 11.032 0 10.4585 0H6.8865C6.31302 0 5.84812 0.470192 5.84812 1.0502V9.36782C5.84812 9.94783 5.38323 10.418 4.80975 10.418H1.03837C0.464895 10.418 0 10.8882 0 11.4682V14.4088C0 14.9888 0.464896 15.459 1.03837 15.459H4.80975C5.38323 15.459 5.84812 15.9292 5.84812 16.5092C5.84812 16.5092 5.84812 40.905 5.84812 47.2902C5.84812 53.6755 8.17408 54.8853 14.0222 54.8853H17.3035C17.8769 54.8853 18.3418 54.4151 18.3418 53.8351V50.8945C18.3418 50.3145 17.8769 49.8443 17.3035 49.8443H15.7501C12.2279 49.8443 11.4969 49.3738 11.4969 46.7525V16.5092C11.4969 15.9292 11.9618 15.459 12.5353 15.459H17.3035C17.8769 15.459 18.3418 14.9888 18.3418 14.4088V11.4682C18.3418 10.8882 17.8769 10.418 17.3035 10.418H12.5353C11.9618 10.418 11.4969 9.94782 11.4969 9.36781V1.0502Z" fill="black"/>
<path d="M60.7091 53.8351C60.7091 54.4151 61.174 54.8853 61.7475 54.8853H65.3195C65.893 54.8853 66.3579 54.4151 66.3579 53.8351V21.1863C66.3579 20.6063 65.893 20.1361 65.3195 20.1361H61.7475C61.174 20.1361 60.7091 20.6063 60.7091 21.1863V53.8351Z" fill="black"/>
<path d="M88.9316 50.2476C81.4886 50.2476 79.229 43.2574 79.229 37.0066C79.229 30.3525 82.1531 24.3706 89.3968 24.3706C96.5076 24.3706 99.1658 30.6886 99.1658 36.805C99.1658 43.3246 96.3747 50.2476 88.9316 50.2476ZM104.748 21.1863C104.748 20.6063 104.283 20.1361 103.71 20.1361H100.47C99.8966 20.1361 99.4317 20.6063 99.4317 21.1863V25.0677C99.4317 25.091 99.413 25.1099 99.39 25.1099C99.3747 25.1099 99.3606 25.1013 99.3533 25.0878C97.2902 21.2713 93.4423 19.3296 89.131 19.3296C77.2354 19.3296 73.248 29.4787 73.248 37.6787C73.248 47.1558 78.3651 55.2885 88.5993 55.2885C92.9024 55.2885 97.4034 53.2209 99.2772 49.0191C99.2903 48.9897 99.3193 48.9705 99.3511 48.9705C99.3956 48.9705 99.4317 49.007 99.4317 49.052V51.2558C99.4317 59.0525 96.5076 64.4295 89.131 64.4295C85.7146 64.4295 81.2901 63.1834 80.3819 59.7551C80.2402 59.2202 79.7999 58.7836 79.2524 58.7836H75.6625C75.071 58.7836 74.5934 59.287 74.6783 59.879C75.6465 66.6327 82.6727 69 88.7987 69C99.631 69 104.748 63.2197 104.748 51.9279V21.1863Z" fill="black"/>
<path d="M127.092 50.2476C119.649 50.2476 117.389 43.2574 117.389 37.0066C117.389 30.3525 120.313 24.3706 127.557 24.3706C134.668 24.3706 137.326 30.6886 137.326 36.805C137.326 43.3246 134.535 50.2476 127.092 50.2476ZM142.908 21.1863C142.908 20.6063 142.443 20.1361 141.87 20.1361H138.63C138.057 20.1361 137.592 20.6063 137.592 21.1863V25.0677C137.592 25.091 137.573 25.1099 137.55 25.1099C137.535 25.1099 137.521 25.1013 137.514 25.0878C135.45 21.2713 131.603 19.3296 127.291 19.3296C115.396 19.3296 111.408 29.4787 111.408 37.6787C111.408 47.1558 116.525 55.2885 126.76 55.2885C131.063 55.2885 135.564 53.2209 137.437 49.0191C137.451 48.9897 137.48 48.9705 137.511 48.9705C137.556 48.9705 137.592 49.007 137.592 49.052V51.2558C137.592 59.0525 134.668 64.4295 127.291 64.4295C123.875 64.4295 119.45 63.1834 118.542 59.7551C118.4 59.2202 117.96 58.7836 117.413 58.7836H113.823C113.231 58.7836 112.754 59.287 112.839 59.879C113.807 66.6327 120.833 69 126.959 69C137.791 69 142.908 63.2197 142.908 51.9279V21.1863Z" fill="black"/>
<path d="M175.986 43.8623C175.5 43.8623 175.084 44.2054 174.942 44.6756C173.747 48.6406 170.612 50.6508 166.249 50.6508C159.163 50.6508 155.745 45.8631 155.55 40.2406C155.53 39.6746 155.994 39.2246 156.554 39.2246H180.27C180.828 39.2246 181.288 38.7809 181.288 38.2172C181.294 29.9345 177.399 19.3296 165.717 19.3296C156.347 19.3296 149.568 26.9919 149.568 37.4099C149.901 48.0295 155.084 55.6918 166.05 55.6918C173.328 55.6918 178.593 51.9767 180.444 45.1121C180.617 44.4721 180.124 43.8623 179.468 43.8623H175.986ZM156.67 34.1837C156.065 34.1837 155.585 33.6619 155.683 33.0587C156.464 28.253 159.893 24.3706 165.385 24.3706C170.587 24.3706 174.461 28.1637 175.18 33.0856C175.267 33.6795 174.79 34.1837 174.196 34.1837H156.67Z" fill="black"/>
<path d="M186.924 53.8351C186.924 54.4151 187.389 54.8853 187.962 54.8853H191.534C192.108 54.8853 192.573 54.4151 192.573 53.8351V39.4263C192.573 30.9654 195.641 25.7939 203.959 25.4027C204.532 25.3757 205 24.9086 205 24.3286V20.3461C205 19.7794 204.554 19.3111 203.994 19.3235C198.481 19.4453 194.966 22.18 192.396 27.4158C192.382 27.444 192.354 27.4624 192.322 27.4624C192.277 27.4624 192.24 27.4252 192.24 27.3794V21.1863C192.24 20.6063 191.776 20.1361 191.202 20.1361H187.962C187.389 20.1361 186.924 20.6063 186.924 21.1863V53.8351Z" fill="black"/>
<path d="M55.322 10.4199C55.8955 10.4199 56.3604 10.89 56.3604 11.4701V15.0828C56.3604 15.6628 55.8955 16.1329 55.322 16.1329L41.0755 16.133C32.71 16.133 27.5967 19.2361 27.2099 27.6489C27.1832 28.2283 26.7213 28.7018 26.1478 28.7018H22.2103C21.6499 28.7018 21.187 28.2508 21.1992 27.6843C21.3196 22.1087 24.0235 18.5537 29.2003 15.9544C29.2282 15.9404 29.2464 15.9113 29.2464 15.8798C29.2464 15.834 29.2097 15.7969 29.1644 15.7969H23.041C22.4676 15.7969 22.0027 15.3267 22.0027 14.7467V11.4701C22.0027 10.89 22.4676 10.4199 23.041 10.4199L55.322 10.4199Z" fill="black"/>
<path d="M60.1159 14.9427H64.9267C65.1575 14.9427 65.3681 14.8648 65.5276 14.7367C66.7027 14.6812 67.632 13.9788 67.632 13.1205C67.632 12.2622 66.7027 11.5598 65.5276 11.5044C65.3681 11.3763 65.1575 11.2984 64.9267 11.2984H60.5413C60.4167 11.2984 60.3158 11.389 60.3158 11.5008C60.3158 11.6126 60.4167 11.7033 60.5413 11.7033H61.5451C61.6696 11.7033 61.7705 11.7939 61.7705 11.9058C61.7705 12.0176 61.6696 12.1082 61.5451 12.1082H59.6905C59.566 12.1082 59.4651 12.1989 59.4651 12.3107C59.4651 12.4225 59.566 12.5131 59.6905 12.5131H60.9411C61.0656 12.5131 61.1665 12.6038 61.1665 12.7156C61.1665 12.8274 61.0656 12.9181 60.9411 12.9181H58.8398C58.7153 12.9181 58.6144 13.0087 58.6144 13.1205C58.6144 13.2323 58.7153 13.323 58.8398 13.323H61.2814C61.4059 13.323 61.5068 13.4136 61.5068 13.5255C61.5068 13.6373 61.4059 13.7279 61.2814 13.7279H59.9457C59.8212 13.7279 59.7203 13.8186 59.7203 13.9304C59.7203 14.0422 59.8212 14.1328 59.9457 14.1328H60.7709C60.8955 14.1328 60.9964 14.2235 60.9964 14.3353C60.9964 14.4471 60.8955 14.5378 60.7709 14.5378H60.1159C59.9914 14.5378 59.8905 14.6284 59.8905 14.7402C59.8905 14.852 59.9914 14.9427 60.1159 14.9427Z" fill="#2CD7B8"/>
</svg>
